solid 
  facet normal -2.318187E-03 -9.999967E-01 1.025993E-03
    outer loop
      vertex -1.754857E-02 6.791845E-02 4.115345E-02
      vertex -3.575267E-02 6.794669E-02 2.755158E-02
      vertex -4.449029E-02 6.794689E-02 7.998115E-03
    endloop
  endfacet
  facet normal -9.864372E-04 -9.999995E-01 -5.617636E-05
    outer loop
      vertex -4.449029E-02 6.794689E-02 7.998115E-03
      vertex -4.348833E-02 6.794713E-02 -1.383995E-02
      vertex -1.754857E-02 6.791845E-02 4.115345E-02
    endloop
  endfacet
  facet normal -5.592239E-04 -9.999998E-01 -2.576880E-04
    outer loop
      vertex -1.754857E-02 6.791845E-02 4.115345E-02
      vertex -4.348833E-02 6.794713E-02 -1.383995E-02
      vertex -3.251056E-02 6.794567E-02 -3.199647E-02
    endloop
  endfacet
  facet normal -8.557422E-01 -2.222429E-03 -5.173976E-01
    outer loop
      vertex -3.251056E-02 6.794567E-02 -3.199647E-02
      vertex -4.348833E-02 6.794713E-02 -1.383995E-02
      vertex -3.199492E-02 1.076448E-01 -3.301984E-02
    endloop
  endfacet
  facet normal 5.162905E-01 3.301547E-03 -8.564072E-01
    outer loop
      vertex 3.228807E-02 6.794667E-02 -3.271721E-02
      vertex 1.500251E-02 6.794696E-02 -4.313791E-02
      vertex 1.873363E-02 1.093662E-01 -4.072891E-02
    endloop
  endfacet
  facet normal 7.202202E-05 -9.999999E-01 -3.103702E-04
    outer loop
      vertex 1.500251E-02 6.794696E-02 -4.313791E-02
      vertex -1.754857E-02 6.791845E-02 4.115345E-02
      vertex -2.158524E-03 6.794656E-02 -4.584787E-02
    endloop
  endfacet
  facet normal 1.520892E-04 -9.999999E-01 -2.794504E-04
    outer loop
      vertex -1.754857E-02 6.791845E-02 4.115345E-02
      vertex 1.500251E-02 6.794696E-02 -4.313791E-02
      vertex 3.228807E-02 6.794667E-02 -3.271721E-02
    endloop
  endfacet
  facet normal 3.137278E-04 -1.000000E+00 -1.704014E-04
    outer loop
      vertex 3.228807E-02 6.794667E-02 -3.271721E-02
      vertex 4.424877E-02 6.794672E-02 -1.095857E-02
      vertex -1.754857E-02 6.791845E-02 4.115345E-02
    endloop
  endfacet
  facet normal -1.010129E-02 9.999313E-01 -5.950376E-03
    outer loop
      vertex -2.977188E-02 1.164996E-01 -1.018303E-02
      vertex -4.977645E-03 1.167105E-01 -1.684091E-02
      vertex -2.312964E-02 1.164981E-01 -2.171174E-02
    endloop
  endfacet
  facet normal -1.469470E-01 1.796127E-02 -9.889813E-01
    outer loop
      vertex -1.461798E-02 1.077059E-01 -4.327451E-02
      vertex 2.534852E-03 1.077915E-01 -4.582160E-02
      vertex -2.158524E-03 6.794656E-02 -4.584787E-02
    endloop
  endfacet
  facet normal 1.559568E-01 -1.771895E-02 -9.876050E-01
    outer loop
      vertex 2.534852E-03 1.077915E-01 -4.582160E-02
      vertex 1.500251E-02 6.794696E-02 -4.313791E-02
      vertex -2.158524E-03 6.794656E-02 -4.584787E-02
    endloop
  endfacet
  facet normal 2.972482E-01 2.873081E-02 -9.543679E-01
    outer loop
      vertex 1.500251E-02 6.794696E-02 -4.313791E-02
      vertex 2.534852E-03 1.077915E-01 -4.582160E-02
      vertex 1.873363E-02 1.093662E-01 -4.072891E-02
    endloop
  endfacet
  facet normal -5.699853E-01 -1.377430E-02 -8.215394E-01
    outer loop
      vertex -3.251056E-02 6.794567E-02 -3.199647E-02
      vertex -3.199492E-02 1.076448E-01 -3.301984E-02
      vertex -1.840717E-02 6.794694E-02 -4.178145E-02
    endloop
  endfacet
  facet normal -5.082087E-01 1.609821E-02 -8.610834E-01
    outer loop
      vertex -1.461798E-02 1.077059E-01 -4.327451E-02
      vertex -1.840717E-02 6.794694E-02 -4.178145E-02
      vertex -3.199492E-02 1.076448E-01 -3.301984E-02
    endloop
  endfacet
  facet normal -2.427539E-01 -1.329067E-02 -9.699968E-01
    outer loop
      vertex -1.840717E-02 6.794694E-02 -4.178145E-02
      vertex -1.461798E-02 1.077059E-01 -4.327451E-02
      vertex -2.158524E-03 6.794656E-02 -4.584787E-02
    endloop
  endfacet
  facet normal -1.090764E-04 -9.999999E-01 -3.424055E-04
    outer loop
      vertex -1.754857E-02 6.791845E-02 4.115345E-02
      vertex -1.840717E-02 6.794694E-02 -4.178145E-02
      vertex -2.158524E-03 6.794656E-02 -4.584787E-02
    endloop
  endfacet
  facet normal -1.469536E-04 -9.999999E-01 -3.420133E-04
    outer loop
      vertex -3.251056E-02 6.794567E-02 -3.199647E-02
      vertex -1.840717E-02 6.794694E-02 -4.178145E-02
      vertex -1.754857E-02 6.791845E-02 4.115345E-02
    endloop
  endfacet
  facet normal -4.342724E-01 5.238833E-01 -7.327713E-01
    outer loop
      vertex -1.461798E-02 1.077059E-01 -4.327451E-02
      vertex -3.199492E-02 1.076448E-01 -3.301984E-02
      vertex -2.648997E-02 1.101986E-01 -3.445652E-02
    endloop
  endfacet
  facet normal -1.909377E-01 8.468077E-01 -4.964468E-01
    outer loop
      vertex -1.461798E-02 1.077059E-01 -4.327451E-02
      vertex -2.648997E-02 1.101986E-01 -3.445652E-02
      vertex -1.270828E-02 1.163950E-01 -2.918767E-02
    endloop
  endfacet
  facet normal -2.583691E-01 8.913580E-01 -3.724598E-01
    outer loop
      vertex -1.270828E-02 1.163950E-01 -2.918767E-02
      vertex -2.648997E-02 1.101986E-01 -3.445652E-02
      vertex -2.312964E-02 1.164981E-01 -2.171174E-02
    endloop
  endfacet
  facet normal 9.994303E-01 1.288130E-02 -3.119319E-02
    outer loop
      vertex 4.424877E-02 6.794672E-02 -1.095857E-02
      vertex 4.366498E-02 1.076669E-01 -1.326056E-02
      vertex 4.434700E-02 1.078486E-01 8.666348E-03
    endloop
  endfacet
  facet normal 8.762281E-01 -1.503645E-02 -4.816619E-01
    outer loop
      vertex 3.228807E-02 6.794667E-02 -3.271721E-02
      vertex 4.366498E-02 1.076669E-01 -1.326056E-02
      vertex 4.424877E-02 6.794672E-02 -1.095857E-02
    endloop
  endfacet
  facet normal 1.754632E-01 9.793614E-01 1.003198E-01
    outer loop
      vertex 3.044085E-02 1.165972E-01 6.368421E-03
      vertex 2.084305E-02 1.166858E-01 2.228950E-02
      vertex 2.604310E-02 1.162974E-01 1.698691E-02
    endloop
  endfacet
  facet normal 5.437060E-03 9.999825E-01 -2.292957E-03
    outer loop
      vertex 3.044085E-02 1.165972E-01 6.368421E-03
      vertex 5.843170E-05 1.167082E-01 -1.726016E-02
      vertex 2.084305E-02 1.166858E-01 2.228950E-02
    endloop
  endfacet
  facet normal 4.710104E-04 -9.999999E-01 1.611318E-05
    outer loop
      vertex 4.424877E-02 6.794672E-02 -1.095857E-02
      vertex 4.396093E-02 6.794693E-02 1.040227E-02
      vertex -1.754857E-02 6.791845E-02 4.115345E-02
    endloop
  endfacet
  facet normal 9.151608E-01 8.677648E-03 4.029954E-01
    outer loop
      vertex 3.838475E-02 6.794696E-02 2.306520E-02
      vertex 4.396093E-02 6.794693E-02 1.040227E-02
      vertex 4.434700E-02 1.078486E-01 8.666348E-03
    endloop
  endfacet
  facet normal 9.998679E-01 -9.088117E-03 1.347335E-02
    outer loop
      vertex 4.396093E-02 6.794693E-02 1.040227E-02
      vertex 4.424877E-02 6.794672E-02 -1.095857E-02
      vertex 4.434700E-02 1.078486E-01 8.666348E-03
    endloop
  endfacet
  facet normal -1.891640E-01 8.469965E-01 -4.968037E-01
    outer loop
      vertex -1.270828E-02 1.163950E-01 -2.918767E-02
      vertex -2.746684E-03 1.102122E-01 -4.352165E-02
      vertex -1.461798E-02 1.077059E-01 -4.327451E-02
    endloop
  endfacet
  facet normal -1.278117E-01 5.222442E-01 -8.431637E-01
    outer loop
      vertex -2.746684E-03 1.102122E-01 -4.352165E-02
      vertex 2.534852E-03 1.077915E-01 -4.582160E-02
      vertex -1.461798E-02 1.077059E-01 -4.327451E-02
    endloop
  endfacet
  facet normal 1.084002E-01 7.987767E-01 -5.917812E-01
    outer loop
      vertex 2.534852E-03 1.077915E-01 -4.582160E-02
      vertex -2.746684E-03 1.102122E-01 -4.352165E-02
      vertex 1.873363E-02 1.093662E-01 -4.072891E-02
    endloop
  endfacet
  facet normal 9.051372E-01 1.802122E-02 4.247374E-01
    outer loop
      vertex 3.508908E-02 1.078191E-01 2.839671E-02
      vertex 3.838475E-02 6.794696E-02 2.306520E-02
      vertex 4.434700E-02 1.078486E-01 8.666348E-03
    endloop
  endfacet
  facet normal 7.437804E-01 -2.782307E-02 6.678448E-01
    outer loop
      vertex 3.508908E-02 1.078191E-01 2.839671E-02
      vertex 2.622193E-02 6.794480E-02 3.661088E-02
      vertex 3.838475E-02 6.794696E-02 2.306520E-02
    endloop
  endfacet
  facet normal 6.133807E-01 2.620566E-02 7.893525E-01
    outer loop
      vertex 2.622193E-02 6.794480E-02 3.661088E-02
      vertex 3.508908E-02 1.078191E-01 2.839671E-02
      vertex 2.093223E-02 1.076685E-01 3.940254E-02
    endloop
  endfacet
  facet normal 4.301361E-01 9.014528E-01 -4.863922E-02
    outer loop
      vertex 3.183134E-02 1.153781E-01 -3.927466E-03
      vertex 3.044085E-02 1.165972E-01 6.368421E-03
      vertex 4.247395E-02 1.101980E-01 -5.816764E-03
    endloop
  endfacet
  facet normal 8.660855E-01 4.989292E-01 -3.107275E-02
    outer loop
      vertex 4.366498E-02 1.076669E-01 -1.326056E-02
      vertex 4.247395E-02 1.101980E-01 -5.816764E-03
      vertex 4.434700E-02 1.078486E-01 8.666348E-03
    endloop
  endfacet
  facet normal 5.021012E-01 8.400839E-01 -2.053131E-01
    outer loop
      vertex 3.334138E-02 1.102216E-01 -2.805429E-02
      vertex 4.247395E-02 1.101980E-01 -5.816764E-03
      vertex 4.366498E-02 1.076669E-01 -1.326056E-02
    endloop
  endfacet
  facet normal 2.932819E-01 8.698286E-01 -3.967162E-01
    outer loop
      vertex 3.334138E-02 1.102216E-01 -2.805429E-02
      vertex 1.873363E-02 1.093662E-01 -4.072891E-02
      vertex 1.521067E-02 1.163959E-01 -2.792014E-02
    endloop
  endfacet
  facet normal -1.446095E-01 8.446666E-01 5.153897E-01
    outer loop
      vertex -5.557575E-03 1.165814E-01 3.010718E-02
      vertex -2.491506E-02 1.102434E-01 3.506294E-02
      vertex -3.662440E-04 1.102347E-01 4.196528E-02
    endloop
  endfacet
  facet normal -1.579353E-01 8.157113E-01 5.564815E-01
    outer loop
      vertex -1.892410E-02 1.077217E-01 4.045970E-02
      vertex -6.021411E-03 1.076989E-01 4.415503E-02
      vertex -2.491506E-02 1.102434E-01 3.506294E-02
    endloop
  endfacet
  facet normal -1.545532E-01 8.202534E-01 5.507245E-01
    outer loop
      vertex -2.491506E-02 1.102434E-01 3.506294E-02
      vertex -6.021411E-03 1.076989E-01 4.415503E-02
      vertex -3.662440E-04 1.102347E-01 4.196528E-02
    endloop
  endfacet
  facet normal 3.750971E-01 8.528537E-01 3.632393E-01
    outer loop
      vertex 2.206453E-02 1.102226E-01 3.620331E-02
      vertex 3.508908E-02 1.078191E-01 2.839671E-02
      vertex 2.084305E-02 1.166858E-01 2.228950E-02
    endloop
  endfacet
  facet normal 4.933455E-01 5.862224E-01 6.426146E-01
    outer loop
      vertex 3.508908E-02 1.078191E-01 2.839671E-02
      vertex 2.206453E-02 1.102226E-01 3.620331E-02
      vertex 2.093223E-02 1.076685E-01 3.940254E-02
    endloop
  endfacet
  facet normal 3.907421E-01 8.631054E-01 3.199528E-01
    outer loop
      vertex 2.604310E-02 1.162974E-01 1.698691E-02
      vertex 2.084305E-02 1.166858E-01 2.228950E-02
      vertex 3.940657E-02 1.102084E-01 1.709229E-02
    endloop
  endfacet
  facet normal 3.921753E-01 8.582082E-01 3.311755E-01
    outer loop
      vertex 3.508908E-02 1.078191E-01 2.839671E-02
      vertex 3.940657E-02 1.102084E-01 1.709229E-02
      vertex 2.084305E-02 1.166858E-01 2.228950E-02
    endloop
  endfacet
  facet normal 8.470447E-01 3.523191E-01 3.979781E-01
    outer loop
      vertex 4.434700E-02 1.078486E-01 8.666348E-03
      vertex 3.940657E-02 1.102084E-01 1.709229E-02
      vertex 3.508908E-02 1.078191E-01 2.839671E-02
    endloop
  endfacet
  facet normal 4.055552E-01 8.934222E-01 1.931883E-01
    outer loop
      vertex 2.604310E-02 1.162974E-01 1.698691E-02
      vertex 3.940657E-02 1.102084E-01 1.709229E-02
      vertex 3.044085E-02 1.165972E-01 6.368421E-03
    endloop
  endfacet
  facet normal 5.244352E-01 8.485819E-01 6.983145E-02
    outer loop
      vertex 4.247395E-02 1.101980E-01 -5.816764E-03
      vertex 3.940657E-02 1.102084E-01 1.709229E-02
      vertex 4.434700E-02 1.078486E-01 8.666348E-03
    endloop
  endfacet
  facet normal 5.223916E-01 8.498640E-01 6.955724E-02
    outer loop
      vertex 4.247395E-02 1.101980E-01 -5.816764E-03
      vertex 3.044085E-02 1.165972E-01 6.368421E-03
      vertex 3.940657E-02 1.102084E-01 1.709229E-02
    endloop
  endfacet
  facet normal 8.614495E-01 2.019317E-03 -5.078393E-01
    outer loop
      vertex 3.280188E-02 1.078214E-01 -3.168707E-02
      vertex 4.366498E-02 1.076669E-01 -1.326056E-02
      vertex 3.228807E-02 6.794667E-02 -3.271721E-02
    endloop
  endfacet
  facet normal 7.504731E-01 4.946680E-01 -4.382850E-01
    outer loop
      vertex 4.366498E-02 1.076669E-01 -1.326056E-02
      vertex 3.280188E-02 1.078214E-01 -3.168707E-02
      vertex 3.334138E-02 1.102216E-01 -2.805429E-02
    endloop
  endfacet
  facet normal 5.417567E-01 1.473038E-02 -8.404062E-01
    outer loop
      vertex 1.873363E-02 1.093662E-01 -4.072891E-02
      vertex 3.280188E-02 1.078214E-01 -3.168707E-02
      vertex 3.228807E-02 6.794667E-02 -3.271721E-02
    endloop
  endfacet
  facet normal 4.276055E-01 7.237073E-01 -5.416654E-01
    outer loop
      vertex 3.334138E-02 1.102216E-01 -2.805429E-02
      vertex 3.280188E-02 1.078214E-01 -3.168707E-02
      vertex 1.873363E-02 1.093662E-01 -4.072891E-02
    endloop
  endfacet
  facet normal 3.328865E-01 9.406254E-01 -6.641098E-02
    outer loop
      vertex 3.183134E-02 1.153781E-01 -3.927466E-03
      vertex 2.641012E-02 1.163038E-01 -1.799098E-02
      vertex 3.044085E-02 1.165972E-01 6.368421E-03
    endloop
  endfacet
  facet normal 3.018576E-01 8.936089E-01 -3.321824E-01
    outer loop
      vertex 1.521067E-02 1.163959E-01 -2.792014E-02
      vertex 2.641012E-02 1.163038E-01 -1.799098E-02
      vertex 3.334138E-02 1.102216E-01 -2.805429E-02
    endloop
  endfacet
  facet normal 4.205216E-01 9.014431E-01 -1.027716E-01
    outer loop
      vertex 4.247395E-02 1.101980E-01 -5.816764E-03
      vertex 2.641012E-02 1.163038E-01 -1.799098E-02
      vertex 3.183134E-02 1.153781E-01 -3.927466E-03
    endloop
  endfacet
  facet normal 4.732700E-01 8.594136E-01 -1.934521E-01
    outer loop
      vertex 2.641012E-02 1.163038E-01 -1.799098E-02
      vertex 4.247395E-02 1.101980E-01 -5.816764E-03
      vertex 3.334138E-02 1.102216E-01 -2.805429E-02
    endloop
  endfacet
  facet normal 8.804735E-04 9.999996E-01 1.016854E-04
    outer loop
      vertex 5.843170E-05 1.167082E-01 -1.726016E-02
      vertex 1.215002E-03 1.167026E-01 2.760523E-02
      vertex 2.084305E-02 1.166858E-01 2.228950E-02
    endloop
  endfacet
  facet normal 4.694536E-04 9.999999E-01 1.122809E-04
    outer loop
      vertex -4.977645E-03 1.167105E-01 -1.684091E-02
      vertex 1.215002E-03 1.167026E-01 2.760523E-02
      vertex 5.843170E-05 1.167082E-01 -1.726016E-02
    endloop
  endfacet
  facet normal -1.430837E-03 9.999989E-01 3.770468E-04
    outer loop
      vertex -3.763945E-03 1.166999E-01 1.588386E-02
      vertex 1.215002E-03 1.167026E-01 2.760523E-02
      vertex -4.977645E-03 1.167105E-01 -1.684091E-02
    endloop
  endfacet
  facet normal 2.179613E-01 8.922935E-01 3.953546E-01
    outer loop
      vertex 2.084305E-02 1.166858E-01 2.228950E-02
      vertex 8.138755E-03 1.164093E-01 2.991770E-02
      vertex 2.206453E-02 1.102226E-01 3.620331E-02
    endloop
  endfacet
  facet normal 1.642996E-01 8.602400E-01 4.826932E-01
    outer loop
      vertex 2.206453E-02 1.102226E-01 3.620331E-02
      vertex 8.138755E-03 1.164093E-01 2.991770E-02
      vertex 6.310002E-03 1.101920E-01 4.162041E-02
    endloop
  endfacet
  facet normal 1.939217E-02 9.974651E-01 6.846319E-02
    outer loop
      vertex 1.215002E-03 1.167026E-01 2.760523E-02
      vertex 8.138755E-03 1.164093E-01 2.991770E-02
      vertex 2.084305E-02 1.166858E-01 2.228950E-02
    endloop
  endfacet
  facet normal 1.369876E-02 9.962564E-01 8.535646E-02
    outer loop
      vertex -5.557575E-03 1.165814E-01 3.010718E-02
      vertex 8.138755E-03 1.164093E-01 2.991770E-02
      vertex 1.215002E-03 1.167026E-01 2.760523E-02
    endloop
  endfacet
  facet normal 3.004645E-02 8.807572E-01 4.726139E-01
    outer loop
      vertex 6.310002E-03 1.101920E-01 4.162041E-02
      vertex 8.138755E-03 1.164093E-01 2.991770E-02
      vertex -3.662440E-04 1.102347E-01 4.196528E-02
    endloop
  endfacet
  facet normal 1.756065E-02 8.847039E-01 4.658224E-01
    outer loop
      vertex -3.662440E-04 1.102347E-01 4.196528E-02
      vertex 8.138755E-03 1.164093E-01 2.991770E-02
      vertex -5.557575E-03 1.165814E-01 3.010718E-02
    endloop
  endfacet
  facet normal -2.016200E-01 9.021595E-01 3.813892E-01
    outer loop
      vertex -2.491506E-02 1.102434E-01 3.506294E-02
      vertex -1.493765E-02 1.156204E-01 2.761838E-02
      vertex -2.159425E-02 1.165426E-01 2.191805E-02
    endloop
  endfacet
  facet normal -1.914278E-01 9.088631E-01 3.705716E-01
    outer loop
      vertex -2.159425E-02 1.165426E-01 2.191805E-02
      vertex -1.493765E-02 1.156204E-01 2.761838E-02
      vertex -5.557575E-03 1.165814E-01 3.010718E-02
    endloop
  endfacet
  facet normal -1.953457E-01 9.004704E-01 3.885782E-01
    outer loop
      vertex -5.557575E-03 1.165814E-01 3.010718E-02
      vertex -1.493765E-02 1.156204E-01 2.761838E-02
      vertex -2.491506E-02 1.102434E-01 3.506294E-02
    endloop
  endfacet
  facet normal -9.988582E-01 -1.349925E-02 -4.582883E-02
    outer loop
      vertex -4.348833E-02 6.794713E-02 -1.383995E-02
      vertex -4.449029E-02 6.794689E-02 7.998115E-03
      vertex -4.412812E-02 1.076261E-01 -1.158327E-02
    endloop
  endfacet
  facet normal -8.701892E-01 1.398024E-02 -4.925193E-01
    outer loop
      vertex -4.348833E-02 6.794713E-02 -1.383995E-02
      vertex -4.412812E-02 1.076261E-01 -1.158327E-02
      vertex -3.199492E-02 1.076448E-01 -3.301984E-02
    endloop
  endfacet
  facet normal -4.708316E-04 9.999374E-01 -1.118214E-02
    outer loop
      vertex 5.843170E-05 1.167082E-01 -1.726016E-02
      vertex 2.118743E-03 1.165448E-01 -3.195513E-02
      vertex -4.977645E-03 1.167105E-01 -1.684091E-02
    endloop
  endfacet
  facet normal -9.258930E-02 8.892663E-01 -4.479204E-01
    outer loop
      vertex 2.118743E-03 1.165448E-01 -3.195513E-02
      vertex -2.746684E-03 1.102122E-01 -4.352165E-02
      vertex -1.270828E-02 1.163950E-01 -2.918767E-02
    endloop
  endfacet
  facet normal 9.993938E-02 8.544433E-01 -5.098417E-01
    outer loop
      vertex -2.746684E-03 1.102122E-01 -4.352165E-02
      vertex 2.118743E-03 1.165448E-01 -3.195513E-02
      vertex 1.873363E-02 1.093662E-01 -4.072891E-02
    endloop
  endfacet
  facet normal 1.470476E-01 8.836231E-01 -4.445076E-01
    outer loop
      vertex 1.521067E-02 1.163959E-01 -2.792014E-02
      vertex 1.873363E-02 1.093662E-01 -4.072891E-02
      vertex 2.118743E-03 1.165448E-01 -3.195513E-02
    endloop
  endfacet
  facet normal -7.776425E-03 9.998630E-01 -1.461143E-02
    outer loop
      vertex -2.312964E-02 1.164981E-01 -2.171174E-02
      vertex -4.977645E-03 1.167105E-01 -1.684091E-02
      vertex 2.118743E-03 1.165448E-01 -3.195513E-02
    endloop
  endfacet
  facet normal -1.712295E-02 9.991442E-01 -3.765243E-02
    outer loop
      vertex -2.312964E-02 1.164981E-01 -2.171174E-02
      vertex 2.118743E-03 1.165448E-01 -3.195513E-02
      vertex -1.270828E-02 1.163950E-01 -2.918767E-02
    endloop
  endfacet
  facet normal 6.894163E-02 9.973458E-01 -2.341932E-02
    outer loop
      vertex 2.641012E-02 1.163038E-01 -1.799098E-02
      vertex 2.215606E-02 1.165364E-01 -2.060622E-02
      vertex 3.044085E-02 1.165972E-01 6.368421E-03
    endloop
  endfacet
  facet normal 7.100351E-03 9.999650E-01 -4.431755E-03
    outer loop
      vertex 5.843170E-05 1.167082E-01 -1.726016E-02
      vertex 3.044085E-02 1.165972E-01 6.368421E-03
      vertex 2.215606E-02 1.165364E-01 -2.060622E-02
    endloop
  endfacet
  facet normal 1.555713E-01 9.737023E-01 -1.664376E-01
    outer loop
      vertex 2.641012E-02 1.163038E-01 -1.799098E-02
      vertex 1.521067E-02 1.163959E-01 -2.792014E-02
      vertex 2.215606E-02 1.165364E-01 -2.060622E-02
    endloop
  endfacet
  facet normal 6.219971E-03 9.999282E-01 -1.024395E-02
    outer loop
      vertex 2.118743E-03 1.165448E-01 -3.195513E-02
      vertex 5.843170E-05 1.167082E-01 -1.726016E-02
      vertex 2.215606E-02 1.165364E-01 -2.060622E-02
    endloop
  endfacet
  facet normal -1.117558E-02 9.999365E-01 1.508055E-03
    outer loop
      vertex -2.159425E-02 1.165426E-01 2.191805E-02
      vertex -1.455041E-02 1.166251E-01 1.943886E-02
      vertex -2.977188E-02 1.164996E-01 -1.018303E-02
    endloop
  endfacet
  facet normal -8.471893E-03 9.999641E-01 1.186209E-04
    outer loop
      vertex -2.977188E-02 1.164996E-01 -1.018303E-02
      vertex -1.455041E-02 1.166251E-01 1.943886E-02
      vertex -4.977645E-03 1.167105E-01 -1.684091E-02
    endloop
  endfacet
  facet normal -6.745586E-03 9.999771E-01 5.741537E-04
    outer loop
      vertex -3.763945E-03 1.166999E-01 1.588386E-02
      vertex -4.977645E-03 1.167105E-01 -1.684091E-02
      vertex -1.455041E-02 1.166251E-01 1.943886E-02
    endloop
  endfacet
  facet normal 3.287207E-01 1.861880E-01 9.258924E-01
    outer loop
      vertex 7.990305E-03 1.076826E-01 4.399450E-02
      vertex 5.824213E-04 8.321346E-02 5.154504E-02
      vertex 2.093223E-02 1.076685E-01 3.940254E-02
    endloop
  endfacet
  facet normal 2.334644E-01 7.179378E-01 6.557894E-01
    outer loop
      vertex 2.206453E-02 1.102226E-01 3.620331E-02
      vertex 7.990305E-03 1.076826E-01 4.399450E-02
      vertex 2.093223E-02 1.076685E-01 3.940254E-02
    endloop
  endfacet
  facet normal 2.161594E-01 7.434829E-01 6.328571E-01
    outer loop
      vertex 2.206453E-02 1.102226E-01 3.620331E-02
      vertex 6.310002E-03 1.101920E-01 4.162041E-02
      vertex 7.990305E-03 1.076826E-01 4.399450E-02
    endloop
  endfacet
  facet normal 5.309607E-01 1.115646E-02 8.473230E-01
    outer loop
      vertex 2.093223E-02 1.076685E-01 3.940254E-02
      vertex 3.558678E-03 7.938608E-02 5.066178E-02
      vertex 2.622193E-02 6.794480E-02 3.661088E-02
    endloop
  endfacet
  facet normal 4.092703E-01 1.092106E-01 9.058537E-01
    outer loop
      vertex 5.824213E-04 8.321346E-02 5.154504E-02
      vertex 3.558678E-03 7.938608E-02 5.066178E-02
      vertex 2.093223E-02 1.076685E-01 3.940254E-02
    endloop
  endfacet
  facet normal -2.678305E-01 2.261134E-01 9.365573E-01
    outer loop
      vertex -6.021411E-03 1.076989E-01 4.415503E-02
      vertex -1.892410E-02 1.077217E-01 4.045970E-02
      vertex -2.395748E-03 8.287492E-02 5.118514E-02
    endloop
  endfacet
  facet normal -1.441312E-01 2.500925E-01 9.574341E-01
    outer loop
      vertex 5.824213E-04 8.321346E-02 5.154504E-02
      vertex -6.021411E-03 1.076989E-01 4.415503E-02
      vertex -2.395748E-03 8.287492E-02 5.118514E-02
    endloop
  endfacet
  facet normal -5.489917E-01 -4.404404E-03 8.358161E-01
    outer loop
      vertex -1.754857E-02 6.791845E-02 4.115345E-02
      vertex -2.395748E-03 8.287492E-02 5.118514E-02
      vertex -1.892410E-02 1.077217E-01 4.045970E-02
    endloop
  endfacet
  facet normal -4.115103E-01 8.580605E-01 3.072315E-01
    outer loop
      vertex -2.491506E-02 1.102434E-01 3.506294E-02
      vertex -2.159425E-02 1.165426E-01 2.191805E-02
      vertex -3.419712E-02 1.078056E-01 2.943904E-02
    endloop
  endfacet
  facet normal -4.190517E-01 8.586192E-01 2.952435E-01
    outer loop
      vertex -4.034562E-02 1.101980E-01 1.375480E-02
      vertex -3.419712E-02 1.078056E-01 2.943904E-02
      vertex -2.159425E-02 1.165426E-01 2.191805E-02
    endloop
  endfacet
  facet normal -5.510538E-01 3.305801E-01 7.661961E-01
    outer loop
      vertex -2.491506E-02 1.102434E-01 3.506294E-02
      vertex -3.419712E-02 1.078056E-01 2.943904E-02
      vertex -1.892410E-02 1.077217E-01 4.045970E-02
    endloop
  endfacet
  facet normal -5.851578E-01 -6.088566E-03 8.108965E-01
    outer loop
      vertex -1.754857E-02 6.791845E-02 4.115345E-02
      vertex -1.892410E-02 1.077217E-01 4.045970E-02
      vertex -3.419712E-02 1.078056E-01 2.943904E-02
    endloop
  endfacet
  facet normal -5.985079E-01 -1.457184E-02 8.009844E-01
    outer loop
      vertex -1.754857E-02 6.791845E-02 4.115345E-02
      vertex -3.419712E-02 1.078056E-01 2.943904E-02
      vertex -3.575267E-02 6.794669E-02 2.755158E-02
    endloop
  endfacet
  facet normal -4.190486E-01 8.586246E-01 2.952321E-01
    outer loop
      vertex -2.159425E-02 1.165426E-01 2.191805E-02
      vertex -2.842526E-02 1.164581E-01 1.246813E-02
      vertex -4.034562E-02 1.101980E-01 1.375480E-02
    endloop
  endfacet
  facet normal -4.508639E-01 8.839681E-01 1.237826E-01
    outer loop
      vertex -4.034562E-02 1.101980E-01 1.375480E-02
      vertex -2.842526E-02 1.164581E-01 1.246813E-02
      vertex -3.117966E-02 1.163908E-01 2.915473E-03
    endloop
  endfacet
  facet normal -1.625369E-02 9.998639E-01 2.801780E-03
    outer loop
      vertex -2.159425E-02 1.165426E-01 2.191805E-02
      vertex -2.977188E-02 1.164996E-01 -1.018303E-02
      vertex -2.842526E-02 1.164581E-01 1.246813E-02
    endloop
  endfacet
  facet normal -3.872694E-02 9.992413E-01 4.136681E-03
    outer loop
      vertex -3.117966E-02 1.163908E-01 2.915473E-03
      vertex -2.842526E-02 1.164581E-01 1.246813E-02
      vertex -2.977188E-02 1.164996E-01 -1.018303E-02
    endloop
  endfacet
  facet normal -5.307391E-01 8.468118E-01 3.500986E-02
    outer loop
      vertex -4.201872E-02 1.102028E-01 -1.172494E-02
      vertex -4.034562E-02 1.101980E-01 1.375480E-02
      vertex -3.117966E-02 1.163908E-01 2.915473E-03
    endloop
  endfacet
  facet normal -4.527589E-01 8.906776E-01 -4.126370E-02
    outer loop
      vertex -3.117966E-02 1.163908E-01 2.915473E-03
      vertex -2.977188E-02 1.164996E-01 -1.018303E-02
      vertex -4.201872E-02 1.102028E-01 -1.172494E-02
    endloop
  endfacet
  facet normal -7.179784E-01 5.654756E-01 -4.058869E-01
    outer loop
      vertex -4.412812E-02 1.076261E-01 -1.158327E-02
      vertex -4.201872E-02 1.102028E-01 -1.172494E-02
      vertex -3.199492E-02 1.076448E-01 -3.301984E-02
    endloop
  endfacet
  facet normal -4.194475E-01 8.749897E-01 -2.417781E-01
    outer loop
      vertex -2.312964E-02 1.164981E-01 -2.171174E-02
      vertex -4.201872E-02 1.102028E-01 -1.172494E-02
      vertex -2.977188E-02 1.164996E-01 -1.018303E-02
    endloop
  endfacet
  facet normal -4.660533E-01 8.254297E-01 -3.185278E-01
    outer loop
      vertex -4.201872E-02 1.102028E-01 -1.172494E-02
      vertex -2.648997E-02 1.101986E-01 -3.445652E-02
      vertex -3.199492E-02 1.076448E-01 -3.301984E-02
    endloop
  endfacet
  facet normal -4.411236E-01 8.452852E-01 -3.015011E-01
    outer loop
      vertex -2.648997E-02 1.101986E-01 -3.445652E-02
      vertex -4.201872E-02 1.102028E-01 -1.172494E-02
      vertex -2.312964E-02 1.164981E-01 -2.171174E-02
    endloop
  endfacet
  facet normal 2.484613E-02 9.987327E-01 -4.376586E-02
    outer loop
      vertex 2.118743E-03 1.165448E-01 -3.195513E-02
      vertex 1.919894E-02 1.165111E-01 -2.302744E-02
      vertex 1.521067E-02 1.163959E-01 -2.792014E-02
    endloop
  endfacet
  facet normal 3.216046E-02 9.982454E-01 -4.971665E-02
    outer loop
      vertex 2.215606E-02 1.165364E-01 -2.060622E-02
      vertex 1.521067E-02 1.163959E-01 -2.792014E-02
      vertex 1.919894E-02 1.165111E-01 -2.302744E-02
    endloop
  endfacet
  facet normal 2.055131E-02 9.991567E-01 -3.554753E-02
    outer loop
      vertex 2.215606E-02 1.165364E-01 -2.060622E-02
      vertex 1.919894E-02 1.165111E-01 -2.302744E-02
      vertex 2.118743E-03 1.165448E-01 -3.195513E-02
    endloop
  endfacet
  facet normal -5.015719E-03 9.999857E-01 1.899819E-03
    outer loop
      vertex 1.215002E-03 1.167026E-01 2.760523E-02
      vertex -3.763945E-03 1.166999E-01 1.588386E-02
      vertex -1.021398E-07 1.166963E-01 2.771496E-02
    endloop
  endfacet
  facet normal -6.185981E-03 9.999782E-01 2.272114E-03
    outer loop
      vertex -1.455041E-02 1.166251E-01 1.943886E-02
      vertex -1.021398E-07 1.166963E-01 2.771496E-02
      vertex -3.763945E-03 1.166999E-01 1.588386E-02
    endloop
  endfacet
  facet normal -9.102026E-03 9.999312E-01 7.399246E-03
    outer loop
      vertex -2.159425E-02 1.165426E-01 2.191805E-02
      vertex -1.021398E-07 1.166963E-01 2.771496E-02
      vertex -1.455041E-02 1.166251E-01 1.943886E-02
    endloop
  endfacet
  facet normal -1.232311E-02 9.997358E-01 1.940332E-02
    outer loop
      vertex -5.557575E-03 1.165814E-01 3.010718E-02
      vertex -1.021398E-07 1.166963E-01 2.771496E-02
      vertex -2.159425E-02 1.165426E-01 2.191805E-02
    endloop
  endfacet
  facet normal -1.072558E-03 9.989637E-01 4.550293E-02
    outer loop
      vertex 1.215002E-03 1.167026E-01 2.760523E-02
      vertex -1.021398E-07 1.166963E-01 2.771496E-02
      vertex -5.557575E-03 1.165814E-01 3.010718E-02
    endloop
  endfacet
  facet normal 4.722467E-04 -9.999812E-01 6.116551E-03
    outer loop
      vertex 1.286731E-02 6.793355E-02 4.127414E-02
      vertex 3.966160E-04 6.794803E-02 4.460371E-02
      vertex -1.754857E-02 6.791845E-02 4.115345E-02
    endloop
  endfacet
  facet normal 1.146073E-03 -9.999989E-01 8.695626E-04
    outer loop
      vertex 2.622193E-02 6.794480E-02 3.661088E-02
      vertex 1.286731E-02 6.793355E-02 4.127414E-02
      vertex 3.838475E-02 6.794696E-02 2.306520E-02
    endloop
  endfacet
  facet normal 2.945508E-01 -4.511404E-01 8.424442E-01
    outer loop
      vertex 3.558678E-03 7.938608E-02 5.066178E-02
      vertex 1.286731E-02 6.793355E-02 4.127414E-02
      vertex 2.622193E-02 6.794480E-02 3.661088E-02
    endloop
  endfacet
  facet normal 7.694478E-04 -9.999996E-01 3.417718E-04
    outer loop
      vertex 1.286731E-02 6.793355E-02 4.127414E-02
      vertex 4.396093E-02 6.794693E-02 1.040227E-02
      vertex 3.838475E-02 6.794696E-02 2.306520E-02
    endloop
  endfacet
  facet normal 4.962633E-04 -9.999999E-01 6.662491E-05
    outer loop
      vertex 4.396093E-02 6.794693E-02 1.040227E-02
      vertex 1.286731E-02 6.793355E-02 4.127414E-02
      vertex -1.754857E-02 6.791845E-02 4.115345E-02
    endloop
  endfacet
  facet normal -4.925324E-02 2.763903E-01 9.597825E-01
    outer loop
      vertex 5.824213E-04 8.321346E-02 5.154504E-02
      vertex -9.863509E-08 1.076964E-01 4.446475E-02
      vertex -6.021411E-03 1.076989E-01 4.415503E-02
    endloop
  endfacet
  facet normal 5.690326E-02 2.786081E-01 9.587176E-01
    outer loop
      vertex 7.990305E-03 1.076826E-01 4.399450E-02
      vertex -9.863509E-08 1.076964E-01 4.446475E-02
      vertex 5.824213E-04 8.321346E-02 5.154504E-02
    endloop
  endfacet
  facet normal -3.647062E-02 6.984963E-01 7.146837E-01
    outer loop
      vertex -6.021411E-03 1.076989E-01 4.415503E-02
      vertex -9.863509E-08 1.076964E-01 4.446475E-02
      vertex -3.662440E-04 1.102347E-01 4.196528E-02
    endloop
  endfacet
  facet normal 4.112488E-02 7.040510E-01 7.089576E-01
    outer loop
      vertex 6.310002E-03 1.101920E-01 4.162041E-02
      vertex -3.662440E-04 1.102347E-01 4.196528E-02
      vertex -9.863509E-08 1.076964E-01 4.446475E-02
    endloop
  endfacet
  facet normal 4.306576E-02 7.016834E-01 7.111861E-01
    outer loop
      vertex 7.990305E-03 1.076826E-01 4.399450E-02
      vertex 6.310002E-03 1.101920E-01 4.162041E-02
      vertex -9.863509E-08 1.076964E-01 4.446475E-02
    endloop
  endfacet
  facet normal -1.562074E-01 -5.547696E-01 8.172086E-01
    outer loop
      vertex 3.966160E-04 6.794803E-02 4.460371E-02
      vertex -1.663349E-03 7.877917E-02 5.156277E-02
      vertex -1.754857E-02 6.791845E-02 4.115345E-02
    endloop
  endfacet
  facet normal -5.389988E-01 -1.874197E-02 8.420980E-01
    outer loop
      vertex -1.754857E-02 6.791845E-02 4.115345E-02
      vertex -1.663349E-03 7.877917E-02 5.156277E-02
      vertex -2.395748E-03 8.287492E-02 5.118514E-02
    endloop
  endfacet
  facet normal 1.791725E-01 -8.682488E-02 9.799789E-01
    outer loop
      vertex 3.558678E-03 7.938608E-02 5.066178E-02
      vertex 5.824213E-04 8.321346E-02 5.154504E-02
      vertex -1.663349E-03 7.877917E-02 5.156277E-02
    endloop
  endfacet
  facet normal -1.273580E-01 6.845725E-02 9.894916E-01
    outer loop
      vertex -2.395748E-03 8.287492E-02 5.118514E-02
      vertex -1.663349E-03 7.877917E-02 5.156277E-02
      vertex 5.824213E-04 8.321346E-02 5.154504E-02
    endloop
  endfacet
  facet normal -7.738109E-01 6.334149E-01 -1.555709E-03
    outer loop
      vertex -4.201872E-02 1.102028E-01 -1.172494E-02
      vertex -4.412812E-02 1.076261E-01 -1.158327E-02
      vertex -4.409355E-02 1.077211E-01 9.898181E-03
    endloop
  endfacet
  facet normal -5.779282E-01 8.151976E-01 3.810253E-02
    outer loop
      vertex -4.201872E-02 1.102028E-01 -1.172494E-02
      vertex -4.409355E-02 1.077211E-01 9.898181E-03
      vertex -4.034562E-02 1.101980E-01 1.375480E-02
    endloop
  endfacet
  facet normal -9.999498E-01 9.899577E-03 1.565813E-03
    outer loop
      vertex -4.412812E-02 1.076261E-01 -1.158327E-02
      vertex -4.449029E-02 6.794689E-02 7.998115E-03
      vertex -4.409355E-02 1.077211E-01 9.898181E-03
    endloop
  endfacet
  facet normal -7.483717E-01 5.459607E-01 3.766520E-01
    outer loop
      vertex -3.419712E-02 1.078056E-01 2.943904E-02
      vertex -4.034562E-02 1.101980E-01 1.375480E-02
      vertex -4.409355E-02 1.077211E-01 9.898181E-03
    endloop
  endfacet
  facet normal -9.129427E-01 -1.038205E-02 4.079556E-01
    outer loop
      vertex -3.575267E-02 6.794669E-02 2.755158E-02
      vertex -4.409355E-02 1.077211E-01 9.898181E-03
      vertex -4.449029E-02 6.794689E-02 7.998115E-03
    endloop
  endfacet
  facet normal -8.920575E-01 1.342305E-02 4.517225E-01
    outer loop
      vertex -3.419712E-02 1.078056E-01 2.943904E-02
      vertex -4.409355E-02 1.077211E-01 9.898181E-03
      vertex -3.575267E-02 6.794669E-02 2.755158E-02
    endloop
  endfacet
  facet normal 2.190777E-01 -5.243737E-01 8.228227E-01
    outer loop
      vertex 1.286731E-02 6.793355E-02 4.127414E-02
      vertex 1.386706E-03 7.670610E-02 4.992149E-02
      vertex 3.966160E-04 6.794803E-02 4.460371E-02
    endloop
  endfacet
  facet normal 2.817644E-01 -4.608222E-01 8.415769E-01
    outer loop
      vertex 1.286731E-02 6.793355E-02 4.127414E-02
      vertex 3.558678E-03 7.938608E-02 5.066178E-02
      vertex 1.386706E-03 7.670610E-02 4.992149E-02
    endloop
  endfacet
  facet normal 9.849111E-02 -5.245937E-01 8.456364E-01
    outer loop
      vertex 1.386706E-03 7.670610E-02 4.992149E-02
      vertex -1.663349E-03 7.877917E-02 5.156277E-02
      vertex 3.966160E-04 6.794803E-02 4.460371E-02
    endloop
  endfacet
  facet normal 2.011038E-01 -4.088710E-01 8.901583E-01
    outer loop
      vertex -1.663349E-03 7.877917E-02 5.156277E-02
      vertex 1.386706E-03 7.670610E-02 4.992149E-02
      vertex 3.558678E-03 7.938608E-02 5.066178E-02
    endloop
  endfacet
endsolid 
